#!OML:ASF Y:\EmotionMaleHayes\Project 1\Capture day 1\Session 1\Male1.ASF
:FULLY-SPECIFIED
:DEGREES
81
root -22.6468 15.1573 1.62426 -34.2465 83.0437 -45.8162
lowerback 16.656 4.41835 0.166979
upperback 6.03406 6.03234 -3.73623
thorax -2.41414 3.18591 -5.13732
lowerneck -21.9774 -0.507904 1.51973
upperneck 12.6289 -0.45105 -3.76283
head 7.44736 -0.511903 -1.55143
rclavicle 1.98785e-014 -7.63333e-014
rhumerus -23.6829 50.6134 -90.6039
rradius 91.1894
rwrist -14.8694
rhand -19.2632 -21.3786
rfingers 7.12502
rthumb 7.05108 -51.2412
lclavicle 1.98785e-014 -7.63333e-014
lhumerus -85.9939 -28.6986 105.552
lradius 60.1899
lwrist 31.9438
lhand -32.9416 -18.4962
lfingers 7.12502
lthumb -6.15779 11.3943
rfemur 20.9596 2.09835 22.1619
rtibia 14.4985
rfoot -27.6523 -7.13375
rtoes -22.551
lfemur -51.5354 10.5327 -12.647
ltibia 58.2706
lfoot -19.9214 4.65126
ltoes -16.8748
82
root -22.4108 15.2165 1.60584 -34.7853 83.0135 -46.825
lowerback 16.339 4.40486 0.021827
upperback 5.94043 5.98638 -3.87801
thorax -2.3495 3.16102 -5.17258
lowerneck -22.3588 -0.563442 1.22937
upperneck 12.3909 -0.482158 -3.54384
head 7.43073 -0.520117 -1.43632
rclavicle -6.36111e-015 8.74653e-015
rhumerus -25.2836 50.2691 -91.9609
rradius 90.6096
rwrist -15.4661
rhand -20.2142 -20.3431
rfingers 7.12502
rthumb 6.13306 -50.2343
lclavicle -6.36111e-015 8.74653e-015
lhumerus -84.8794 -29.505 105.447
lradius 58.8121
lwrist 31.6726
lhand -32.7237 -18.2737
lfingers 7.12502
lthumb -5.94747 11.6228
rfemur 19.4709 2.36014 22.5258
rtibia 17.475
rfoot -25.2194 -7.62031
rtoes -18.2543
lfemur -50.7392 10.2292 -12.5537
ltibia 57.8714
lfoot -20.7219 4.7686
ltoes -16.6105
83
root -22.1766 15.2933 1.57419 -38.1287 83.0653 -50.3906
lowerback 16.2884 4.21404 0.302475
upperback 5.91348 5.77695 -3.91768
thorax -2.33784 3.0601 -5.33307
lowerneck -22.6602 -0.580633 1.05171
upperneck 12.2378 -0.469806 -3.44679
head 7.42976 -0.513669 -1.37479
rclavicle -5.08889e-014 2.54444e-014
rhumerus -27.599 49.2216 -93.6332
rradius 90.2928
rwrist -15.5102
rhand -14.7693 -22.1069
rfingers 7.12502
rthumb 11.3872 -51.7778
lclavicle -5.08889e-014 2.54444e-014
lhumerus -83.27 -30.2432 105.187
lradius 57.1663
lwrist 31.7126
lhand -32.5989 -18.6379
lfingers 7.12502
lthumb -5.82695 11.262
rfemur 18.0059 2.39005 23.0511
rtibia 20.6358
rfoot -22.2189 -8.28446
rtoes -14.303
lfemur -49.52 9.69838 -12.3055
ltibia 57.1154
lfoot -21.2689 4.8655
ltoes -16.4602
84
root -21.9434 15.3758 1.5506 -42.102 82.9408 -54.4561
lowerback 16.2104 4.04761 0.555968
upperback 5.96122 5.60339 -3.79012
thorax -2.25187 2.97675 -5.30015
lowerneck -22.8649 -0.572232 1.14104
upperneck 12.0393 -0.423627 -3.79723
head 7.39783 -0.520906 -1.49973
rclavicle 1.98785e-014 -1.27222e-014
rhumerus -28.9758 48.4606 -94.7385
rradius 89.0885
rwrist -15.6546
rhand -19.2518 -20.6822
rfingers 7.12502
rthumb 7.06211 -50.5444
lclavicle 1.98785e-014 -1.27222e-014
lhumerus -80.9705 -30.7401 104.683
lradius 55.096
lwrist 31.4243
lhand -33.3044 -18.8565
lfingers 7.12502
lthumb -6.5081 11.0235
rfemur 16.4179 2.62374 23.9028
rtibia 24.0843
rfoot -18.9389 -9.33396
rtoes -9.52345
lfemur -48.0159 9.30618 -11.7899
ltibia 56.0741
lfoot -21.6674 4.75987
ltoes -15.3948
85
root -21.711 15.4628 1.52903 -44.7524 82.8992 -57.0591
lowerback 16.1168 4.0161 0.735098
upperback 6.05015 5.59935 -3.78672
thorax -2.09165 2.98399 -5.38195
lowerneck -22.9244 -0.636137 1.33977
upperneck 11.8639 -0.544732 -3.96223
head 7.34474 -0.584119 -1.60049
rclavicle 7.95139e-016 5.48646e-014
rhumerus -30.1679 46.9474 -95.8101
rradius 87.4579
rwrist -15.4546
rhand -18.1853 -22.4719
rfingers 7.12502
rthumb 8.09149 -52.297
lclavicle 7.95139e-016 5.48646e-014
lhumerus -78.4173 -31.5547 104.016
lradius 52.7577
lwrist 30.8769
lhand -32.8354 -18.3125
lfingers 7.12502
lthumb -6.0553 11.581
rfemur 14.6732 2.82049 24.4477
rtibia 27.8175
rfoot -15.1194 -10.6206
rtoes -2.7414
lfemur -46.2205 8.86363 -11.449
ltibia 54.8038
lfoot -22.1598 4.46722
ltoes -14.0221
86
root -21.4759 15.5568 1.50719 -46.1825 83.0698 -58.2735
lowerback 16.4586 3.84321 0.597504
upperback 5.96724 5.34221 -3.77371
thorax -2.39862 2.84616 -5.28552
lowerneck -23.1411 -0.573345 0.923657
upperneck 12.1328 -0.393763 -3.57845
head 7.47502 -0.49807 -1.39132
rclavicle -2.3059e-014 6.91771e-014
rhumerus -31.8998 45.6535 -97.3221
rradius 85.6701
rwrist -14.9745
rhand -17.5443 -23.2196
rfingers 7.12502
rthumb 8.71012 -53.0199
lclavicle -2.3059e-014 6.91771e-014
lhumerus -75.6244 -31.5706 103.035
lradius 50.278
lwrist 30.3017
lhand -32.0336 -17.8938
lfingers 7.12502
lthumb -5.28115 12.0204
rfemur 12.9839 2.87727 24.5709
rtibia 31.4255
rfoot -12.7085 -11.1101
rtoes -0.918913
lfemur -44.1186 8.36707 -11.4847
ltibia 53.396
lfoot -22.5588 4.65307
ltoes -16.0681
87
root -21.2465 15.659 1.48944 -45.0396 83.617 -56.9819
lowerback 16.5461 3.64816 -0.292212
upperback 5.97607 4.95077 -3.66452
thorax -2.55764 2.63832 -4.60962
lowerneck -23.3219 -0.441119 0.316654
upperneck 12.336 -0.0769171 -3.25381
head 7.58083 -0.347112 -1.1478
rclavicle 1.66979e-014 -1.82882e-014
rhumerus -33.3 44.6445 -98.342
rradius 83.6496
rwrist -14.396
rhand -16.8808 -23.7785
rfingers 7.12502
rthumb 9.35031 -53.5512
lclavicle 1.66979e-014 -1.82882e-014
lhumerus -71.9754 -30.8475 101.588
lradius 47.4668
lwrist 29.5303
lhand -31.9445 -18.8565
lfingers 7.12502
lthumb -5.19511 11.0598
rfemur 11.0248 2.73319 24.0674
rtibia 35.1146
rfoot -10.3162 -11.585
rtoes 1.19257
lfemur -42.0805 7.67779 -12.1134
ltibia 51.8752
lfoot -22.7708 5.12705
ltoes -19.4484
